<mxfile host="app.diagrams.net" modified="2024-03-01T02:22:22.340Z" agent="Mozilla/5.0 (Macintosh; Intel Mac OS X 10_15_7) AppleWebKit/537.36 (KHTML, like Gecko) Chrome/122.0.0.0 Safari/537.36" version="23.1.6" etag="bpgC62R8riTWAgdtBoT_" type="github">
  <diagram name="Page-1" id="dMgOdD4cIIBa18vav1fo">
    <mxGraphModel>
      <root>
        <mxCell id="0" />
        <mxCell id="1" parent="0" />
      </root>
    </mxGraphModel>
  </diagram>
</mxfile>
